 <svg
        width="235"
        height="223"
        viewBox="0 0 265 253"
        fill="none"
        xmlns="http://www.w3.org/2000/svg"
      >
       <g>
        <path
          d="M151.289 253C119.854 244.062 84.8551 258.903 54.0608 247.988C37.9118 242.253 24.9648 230.057 13.6327 217.222C8.20332 211.068 2.88531 204.442 0.797084 196.534C-1.29114 188.627 0.657866 179.077 7.42372 174.455C14.6629 169.499 24.4636 171.643 32.7608 174.427C41.0859 177.211 50.1627 180.497 58.3486 177.351C66.5344 174.204 70.3489 160.951 62.5529 156.914C60.3533 155.8 57.8196 155.661 55.3415 155.577C45.7914 155.215 36.2691 154.826 26.7189 154.464C21.0389 154.241 14.9135 153.851 10.5978 150.176C5.39118 145.777 4.52805 137.953 5.9202 131.27C7.2845 124.588 10.4308 118.379 11.9064 111.725C14.2453 101.033 14.5794 86.4153 25.2432 84.0208C34.9883 81.8212 44.9004 93.4596 53.9494 89.2553C55.258 88.6427 56.4552 87.6682 57.04 86.3596C58.8219 82.4059 54.367 78.313 50.1349 77.3942C45.9028 76.4753 41.1973 77.0322 37.5499 74.6934C32.0926 71.213 31.9534 62.9158 35.1275 57.3194C38.3016 51.6951 43.8145 47.8806 48.5478 43.4535C55.2023 37.2167 60.5203 29.532 63.945 21.0678C66.4509 14.9423 68.2328 8.03724 73.3559 3.86079C80.9849 -2.37604 92.2335 0.157674 101.672 3.0255C110.415 5.67059 119.353 8.42704 126.536 14.0513C133.692 19.7035 138.759 28.9752 136.81 37.8849C135.585 43.4814 131.826 48.159 129.599 53.4213C127.371 58.6837 127.065 65.7279 131.604 69.2362C134.833 71.742 139.455 71.5193 143.298 70.0993C153.377 66.3683 159.669 54.5629 157.163 44.1218C161.897 41.1147 168.328 43.5371 172.421 47.3794C176.514 51.2217 179.299 56.2892 183.531 59.9644C191.438 66.786 204.135 68.6793 208.283 78.2573C211.958 86.7216 206.418 96.578 199.234 102.369C192.051 108.161 183.169 111.669 176.375 117.934C169.581 124.198 165.405 135.057 170.695 142.63C174.844 148.589 183.28 150.037 190.38 148.533C202.074 146.055 212.042 136.588 215.077 125.034C216.385 120.105 216.497 114.899 218.167 110.082C219.838 105.265 223.68 100.643 228.748 100.281C238.354 99.6129 241.89 112.532 248.795 119.214C252.581 122.89 257.844 124.866 261.101 128.987C266.085 135.252 264.999 144.273 262.967 152.013C248.906 205.528 199.067 247.626 143.966 252.582"
          fill="currentColor"
        />
        <path
          d="M151.206 223.932C150.064 225.519 151.373 228.415 154.101 227.942C155.076 227.774 156.106 227.524 157.136 227.162C159.419 227.357 161.647 226.522 162.983 225.018C163.846 224.044 163.958 222.93 163.54 221.872C163.763 220.73 162.983 219.644 161.925 219.06C160.032 215.858 154.714 214.772 152.013 217.333C150.788 218.503 150.398 220.034 150.649 221.538C150.37 222.234 150.593 223.236 151.206 223.932Z"
          fill="#FFF8EA"
        />
        <path
          d="M173.089 206.39C175.317 207.755 177.934 207.087 180.078 206.363C182.138 205.667 184.032 204.441 184.616 202.437C185.006 201.1 184.7 199.485 183.781 198.232C183.809 197.982 183.865 197.703 183.893 197.453C184.115 195.142 180.997 194.084 179.215 195.142C177.349 196.228 174.899 196.339 173.117 197.592C171.669 198.594 170.751 200.209 170.695 201.936C170.584 203.606 171.419 205.36 173.089 206.39Z"
          fill="#FFF8EA"
        />
        <path
          d="M118.657 215.245C118.156 216.191 118.88 217.556 119.826 218.168C120.021 218.28 120.216 218.419 120.411 218.53C121.135 220.229 122.722 221.732 124.754 222.205C127.232 222.762 129.154 221.698 130.92 220.315C133.348 218.37 133.628 214.596 130.784 213.4C129.051 212.676 127.147 213.189 125.344 213.477C123.865 213.719 121.52 213.556 120.411 212.404C119.908 211.903 118.929 213.168 118.657 215.245Z"
          fill="#FFF8EA"
        />
        <path
          d="M180.587 185.656C182.25 185.595 183.56 184.408 184.158 183.022C184.975 181.042 184.585 178.733 183.536 176.844C182.014 174.043 179.504 171.417 176.481 170.294C174.424 169.587 171.618 170.179 170.505 172.081C170.115 172.788 169.669 173.752 170.212 174.406C170.556 174.841 171.229 174.929 171.796 175.017C174.041 175.345 176.541 176.653 177.343 178.752C177.853 180.155 177.268 182.059 175.677 182.659C174.292 183.205 172.495 182.553 171.288 181.674C170.079 180.793 168.544 179.343 166.962 179.914C165.934 180.292 165.26 181.365 164.8 182.372C164.11 183.952 164.308 185.94 165.319 187.362C166.788 189.49 169.559 190.754 172.178 190.393C174.182 190.109 176.348 188.655 177.45 187.021C178.021 186.152 178.442 185.625 179.647 185.595C179.96 185.586 180.273 185.586 180.587 185.656Z"
          fill="#FFF8EA"
        />
        <path
          d="M87.2952 176.994C89.131 178.281 91.5134 177.948 93.3171 177.389C95.0868 176.848 96.8732 175.876 97.6655 174.233C98.287 173.018 98.1005 171.404 97.2464 170.249C97.2074 170.041 97.1772 169.804 97.1382 169.595C96.5913 167.253 93.3836 167.919 92.0193 169.037C90.6771 170.155 88.5454 170.284 87.1376 171.538C85.9648 172.595 85.4097 174.42 85.6331 176.088C85.8272 177.48 86.5912 176.785 87.2952 176.994Z"
          fill="#FFF8EA"
        />
        <path
          d="M131.277 175.287C131.409 176.63 130.277 178.104 128.934 177.957C128.349 177.891 127.882 177.498 127.56 177.057C127.065 176.351 126.828 175.512 126.83 174.658C126.776 173.743 126.998 172.793 127.452 171.969C127.788 171.391 128.395 170.847 129.147 170.504C130.025 170.101 131.029 170.318 131.831 170.756C132.847 171.332 133.838 172.048 134.878 172.569C135.552 172.925 136.274 172.988 137.088 172.682C138.35 172.209 138.625 170.476 137.438 169.737C134.72 168.034 130.688 168.047 127.809 169.815C125.991 170.942 124.39 172.794 125.377 175.183C125.737 176.089 126.518 176.671 127.313 177.197C127.97 177.628 130.755 178.342 131.277 175.287Z"
          fill="#FFF8EA"
        />
        <path
          d="M141.968 160.186C143.313 160.742 145.074 160.529 146.109 159.641C147.026 158.82 147.53 157.564 147.775 156.325C147.92 155.631 147.863 154.841 147.664 154.092C147.67 153.802 147.629 153.473 147.571 153.183C147.061 150.489 144.466 151.167 143.022 152.215C141.582 153.237 139.574 153.243 138.204 154.346C137.181 155.207 136.595 156.704 136.853 158.089C137.116 159.528 139.07 159.818 140.509 160.185C141.028 160.313 141.519 160.295 141.968 160.186Z"
          fill="#FFF8EA"
        />
        <path
          d="M218.898 157.324C219.913 157.688 220.809 158.455 221.607 159.273C222.351 159.916 223.123 160.596 224.07 160.969C224.972 161.319 226.008 161.31 227.026 161.147C229.042 160.85 230.681 159.314 231.604 157.478C232.89 155.016 233.059 151.762 231.565 149.559C230.602 148.142 228.782 147.17 226.944 146.994C225.067 146.712 223.056 147.602 222.053 149.098C221.218 150.342 220.905 151.942 220.632 153.473C220.441 154.593 220.187 155.748 219.44 156.649C218.997 157.178 218.376 157.271 217.794 157.324C216.822 157.415 216.839 158.95 217.794 157.324Z"
          fill="#FFF8EA"
        />
        <path
          d="M167.872 135.13C169.018 136.181 170.899 135.94 172.501 135.413C173.762 134.998 175.016 134.384 175.587 133.182C176.354 131.588 175.49 129.476 173.99 128.624C172.907 128.011 171.497 128.316 170.481 128.991C169.765 129.469 169.22 130.142 168.605 130.77C168.391 130.957 168.173 131.141 167.94 131.336C167.463 131.662 167.28 132.181 167.232 132.702C167.152 133.565 167.263 134.388 167.872 135.13Z"
          fill="#FFF8EA"
        />
        <path
          d="M210.896 107.912C212.038 107.618 213.283 106.919 213.694 105.7C214.03 104.759 213.748 103.641 213.059 102.854C212.602 102.317 212.154 101.686 211.589 101.277C210.751 100.692 209.559 100.784 208.632 101.056C207.456 101.409 206.431 102.064 205.599 102.891C204.791 103.698 204.346 104.774 204.444 105.86C204.525 107.174 205.739 107.882 207.003 107.804C208.304 107.726 209.416 107.226 210.679 107.322C210.759 107.328 210.835 107.343 210.896 107.412V107.912Z"
          fill="#FFF8EA"
        />
        <path
          d="M200.137 75.329C201.544 75.633 202.946 75.353 204.178 74.626C205.08 74.095 205.927 73.372 206.631 72.57C207.116 72.012 207.645 71.302 207.519 70.55C207.41 69.923 206.903 69.302 206.207 69.163C205.855 69.083 205.487 69.093 205.13 69.095C204.072 69.099 202.995 69.268 201.96 69.585C200.72 69.97 199.587 70.63 198.728 71.573C197.844 72.538 197.442 73.876 197.855 75.134C198.131 75.946 198.957 76.144 199.813 76.192C199.92 76.198 200.027 76.196 200.137 75.329Z"
          fill="#FFF8EA"
        />
        <path
          d="M223.644 34.0137C224.785 33.5895 226.169 33.273 226.58 32.0667C226.857 31.279 226.507 30.4166 225.963 29.7775C225.466 29.1828 224.82 28.5667 224.122 28.1741C222.765 27.4465 221.029 27.7096 219.748 28.4862C218.412 29.3058 217.325 30.5295 217.008 31.9806C216.662 33.5716 217.784 34.8642 219.289 34.7605C220.389 34.6821 221.322 34.1271 222.353 33.7552C222.781 33.5971 223.196 33.3943 223.644 34.0137Z"
          fill="#FFF8EA"
        />
        <path
          d="M161.056 47.2423C161.349 48.2586 161.996 49.269 162.926 49.5945C163.916 49.9431 165.13 49.4025 165.793 48.5378C166.168 48.055 166.374 47.4834 166.373 46.8873C166.376 46.1881 166.1 45.528 165.591 45.0096C165.104 44.5163 164.459 44.1965 163.758 44.1394C163.117 44.073 162.461 44.3223 161.885 44.6108C161.054 45.0268 160.481 45.7488 160.164 46.5861C159.936 47.222 160.12 47.9606 161.056 47.2423Z"
          fill="#FFF8EA"
        />
        <path
          d="M183.413 17.9051C183.899 18.8524 184.938 19.5661 186.02 19.5535C186.914 19.542 187.668 19.0092 188.325 18.4304C188.657 18.1452 188.95 17.8351 189.2 17.5011C189.643 16.875 189.941 16.1717 190.06 15.4329C190.304 13.983 189.057 13.1815 187.809 13.1311C186.478 13.0756 185.334 13.9817 184.399 14.8362C183.674 15.4895 182.847 16.1578 182.454 17.0247C182.159 17.6771 182.469 18.475 183.413 17.9051Z"
          fill="#FFF8EA"
        />
        <path
          d="M109.204 20.8713C109.626 21.2426 110.298 21.1518 110.799 20.9706C111.322 20.78 111.837 20.5558 112.277 20.2173C112.953 19.6921 113.442 18.9174 113.568 18.0642C113.646 17.5418 113.534 17.0273 113.327 16.5478C113.032 15.8895 112.499 15.3904 111.886 15.0347C111.328 14.7234 110.644 14.694 110.061 14.7951C109.398 14.91 108.862 15.3572 108.447 15.8525C107.751 16.6648 107.336 17.7955 107.558 18.8086C107.651 19.2876 107.872 19.7481 108.216 20.1186C108.531 20.4584 108.94 20.7052 109.204 20.8713Z"
          fill="#FFF8EA"
        />
        <path
          d="M87.0205 44.1407C87.8103 44.1756 88.6096 43.8011 89.0441 43.0841C89.2668 42.708 89.4086 42.2516 89.5655 41.8063C90.0927 40.3141 90.1873 38.7133 89.7683 37.2152C89.2764 35.4312 87.4394 34.449 85.7166 34.5004C84.292 34.5404 82.9462 35.2542 81.9868 36.3281C81.0016 37.4326 80.4855 39.0547 80.7745 40.5578C81.0295 41.8967 81.9535 43.1161 83.2901 43.6544C84.1457 44.0016 85.1702 44.1025 86.1602 44.0715C86.4691 44.061 86.745 44.121 87.0205 44.1407Z"
          fill="#FFF8EA"
        />
      </g>
      <defs>
        <linearGradient
          id="paint0_linear_3_37"
          x1="124.5"
          y1="21.5"
          x2="124.5"
          y2="260"
          gradientUnits="userSpaceOnUse"
        >
          <stop stop-color="#DCE35B" />
          <stop offset="1" stop-color="#45B649" />
        </linearGradient>
        <clipPath id="clip0_3_37">
          <rect
            width="227"
            height="238.5"
            fill="white"
            transform="translate(0 0.5)"
          />
        </clipPath>
      </defs>
    </svg>